<svg width="22" height="34" viewBox="0 0 22 34" fill="none" xmlns="http://www.w3.org/2000/svg">
<path d="M6.8696 33.8251H14.9876C19.6112 33.8251 21.8966 31.4514 21.8567 26.704C21.8035 21.2823 21.777 17.3441 21.6441 14.3905C21.2589 5.70495 18.854 3.15593 10.9352 3.15593C3.01653 3.15593 0.598402 5.70495 0.213095 14.3905C0.080231 17.3441 0.0536582 21.2823 0.000512467 26.704C-0.0393468 31.4514 2.24592 33.8251 6.8696 33.8251ZM6.48429 28.4708C5.34166 28.4708 4.6109 27.7155 4.6109 26.5827V19.6234C4.6109 18.477 5.34166 17.7217 6.48429 17.7217H15.3862C16.5156 17.7217 17.2463 18.477 17.2463 19.6234V26.5827C17.2463 27.7155 16.5156 28.4708 15.3862 28.4708H6.48429ZM4.6109 22.9143H17.2463V21.3092H4.6109V22.9143ZM10.9352 0C8.38424 0 6.59058 1.7533 6.59058 4.14048H8.46397C8.46397 2.83225 9.47373 1.90165 10.9352 1.90165C12.3834 1.90165 13.4066 2.83225 13.4066 4.14048H15.2799C15.2799 1.7533 13.473 0 10.9352 0Z" fill="#FF9500"/>
</svg>
