<svg width="24" height="31" viewBox="0 0 24 31" fill="none" xmlns="http://www.w3.org/2000/svg">
<path d="M4.36859 30.4947H22.7963C23.4225 30.4947 23.9347 29.9966 23.9347 29.3563C23.9347 28.8582 23.5932 28.4171 23.1379 28.2606C21.3448 27.5491 20.9748 25.2296 22.7394 23.4509C23.2802 22.9102 23.9347 22.2129 23.9347 20.7899V4.46819C23.9347 1.50837 22.469 0 19.5234 0H4.41127C1.46568 0 0 1.49414 0 4.46819V26.0977C0 29.029 1.47991 30.4947 4.36859 30.4947ZM4.49665 28.2037C3.05943 28.2037 2.29102 27.4353 2.29102 26.0835C2.29102 24.8028 3.20173 23.9774 4.62472 23.9774H19.2246C19.4096 23.9774 19.5804 23.9632 19.7227 23.9347C19.0538 25.4146 19.1677 26.98 19.9218 28.2037H4.49665ZM4.06975 21.8144C3.62863 21.8144 3.25865 21.4445 3.25865 20.9892V3.01675C3.25865 2.56139 3.62863 2.20564 4.06975 2.20564C4.51088 2.20564 4.89509 2.56139 4.89509 3.01675V20.9892C4.89509 21.4445 4.51088 21.8144 4.06975 21.8144Z" fill="#FF9500"/>
</svg>
