<svg width="34" height="27" viewBox="0 0 34 27" fill="none" xmlns="http://www.w3.org/2000/svg">
<path d="M5.67329 21.4525L6.07096 23.0614C6.57466 25.1531 7.67486 26.2258 9.86199 26.2258H24.138C26.3384 26.2258 27.4253 25.1799 27.9423 23.0614L28.34 21.4525H5.67329ZM5.23587 19.6156H28.7906L31.2826 9.29163L30.1957 8.66146L24.085 13.1665C23.6343 13.4883 23.3294 13.3676 23.0775 13.0056L17.3247 4.21006L16.6885 4.18324L10.8826 13.0458C10.6573 13.3944 10.3922 13.5017 9.94151 13.1799L3.9501 8.75531L2.67759 9.09051L5.23587 19.6156ZM3.16803 11.9731C4.91774 11.9731 6.3228 10.5386 6.3228 8.75531C6.3228 7.0123 4.91774 5.56425 3.16803 5.56425C1.41833 5.56425 0 6.99889 0 8.75531C0 10.5386 1.43157 11.9731 3.16803 11.9731ZM17.0067 6.39553C18.7431 6.39553 20.1614 4.9609 20.1614 3.19106C20.1614 1.44804 18.7431 0 17.0067 0C15.2437 0 13.8386 1.43464 13.8386 3.19106C13.8386 4.9609 15.2569 6.39553 17.0067 6.39553ZM30.8319 11.9731C32.5685 11.9731 34 10.5386 34 8.75531C34 6.99889 32.5817 5.56425 30.8319 5.56425C29.0956 5.56425 27.6772 7.0123 27.6772 8.75531C27.6772 10.5386 29.0956 11.9731 30.8319 11.9731Z" fill="#FF9500"/>
</svg>
