<svg width="34" height="29" viewBox="0 0 34 29" fill="none" xmlns="http://www.w3.org/2000/svg">
<path d="M27.7626 28.7871C28.4029 28.7871 28.9294 28.2749 28.9294 27.6487C28.9294 27.0084 28.4029 26.4819 27.7626 26.4819H26.0265V17.0475C26.0265 11.8535 22.0279 7.84068 16.834 7.84068C11.6543 7.84068 7.65569 11.8535 7.65569 17.0475V26.4819H5.89118C5.26507 26.4819 4.76702 27.0084 4.76702 27.6487C4.76702 28.2749 5.26507 28.7871 5.89118 28.7871H27.7626ZM18.0293 17.0901V26.4819H15.6671V17.0901C15.6671 16.4356 16.1794 15.8948 16.834 15.8948C17.4885 15.8948 18.0293 16.4356 18.0293 17.0901ZM3.94168 18.072C4.6105 18.072 5.19391 17.517 5.19391 16.8624C5.19391 16.1794 4.6105 15.6245 3.94168 15.6245H1.20954C0.554966 15.6245 0 16.1936 0 16.8624C0 17.5028 0.554966 18.072 1.20954 18.072H3.94168ZM6.85882 8.60909C7.32841 9.07868 8.11105 9.09291 8.58064 8.60909C9.06445 8.12528 9.05022 7.35686 8.58064 6.88728L6.6596 4.952C6.20425 4.46819 5.40736 4.46819 4.92355 4.952C4.45396 5.43582 4.45396 6.19002 4.92355 6.67382L6.85882 8.60909ZM15.6102 3.97014C15.6102 4.63895 16.1652 5.20814 16.834 5.20814C17.517 5.20814 18.072 4.63895 18.072 3.97014V1.238C18.072 0.569196 17.5028 0 16.834 0C16.1652 0 15.6102 0.569196 15.6102 1.238V3.97014ZM25.0731 6.88728C24.6035 7.35686 24.5893 8.12528 25.0731 8.60909C25.5712 9.09291 26.3253 9.07868 26.7949 8.60909L28.7444 6.67382C29.214 6.19002 29.214 5.43582 28.7444 4.952C28.2463 4.46819 27.4922 4.46819 27.0226 4.952L25.0731 6.88728ZM32.4443 18.072C33.113 18.072 33.6822 17.5028 33.6822 16.8624C33.6822 16.1936 33.113 15.6245 32.4443 15.6245H29.7121C29.0575 15.6245 28.4882 16.1794 28.4882 16.8624C28.4882 17.517 29.0575 18.072 29.7121 18.072H32.4443Z" fill="#FF9500"/>
</svg>
