<svg width="28" height="33" viewBox="0 0 28 33" fill="none" xmlns="http://www.w3.org/2000/svg">
<path d="M13.5369 32.1027C18.5458 32.1027 22.5871 28.0614 22.5871 23.0667C22.5871 18.0578 18.5458 14.0165 13.5369 14.0165C8.54214 14.0165 4.50083 18.0578 4.50083 23.0667C4.50083 28.0614 8.54214 32.1027 13.5369 32.1027ZM10.9612 27.7198C10.4205 28.1182 9.85128 27.7056 10.0647 27.0795L11.0893 24.02L8.47098 22.156C7.97294 21.786 8.12946 21.0887 8.8125 21.0887L12.0285 21.1172L13.0103 18.0436C13.2095 17.4175 13.8925 17.4175 14.0918 18.0436L15.0737 21.1172L18.2896 21.0887C18.9726 21.0887 19.1149 21.8002 18.6311 22.1418L16.0128 24.02L17.0374 27.0795C17.2509 27.7056 16.6816 28.1182 16.1409 27.7198L13.5511 25.8273L10.9612 27.7198ZM4.87082 16.2933C6.26535 14.5287 8.18639 13.1911 10.392 12.5365L3.94587 0.953404L0.203404 6.6596C-0.0527343 7.02957 -0.0669643 7.44225 0.160714 7.81222L4.87082 16.2933ZM10.3493 7.68415H16.7386L21.0787 0H6.00921L10.3493 7.68415ZM16.6958 12.5365C18.9158 13.1911 20.8226 14.5287 22.2171 16.2933L26.9414 7.81222C27.1548 7.44225 27.1406 7.02957 26.8845 6.6596L23.142 0.953404L16.6958 12.5365Z" fill="#FF9500"/>
</svg>
