<svg width="34" height="34" viewBox="0 0 34 34" fill="none" xmlns="http://www.w3.org/2000/svg">
<path d="M0 17.5891C0 20.029 1.69061 21.3685 3.59254 21.3685C4.39088 21.3685 4.98964 21.1412 5.7058 20.6867C6.375 20.2682 6.85635 20.5193 6.85635 21.1054V25.5307C6.85635 27.8869 8.07735 29.0949 10.4136 29.0949H13.5483C14.1118 29.0949 14.3584 28.6164 13.9593 27.9347C13.5014 27.2051 13.2783 26.5952 13.2783 25.7818C13.2783 23.8443 14.6049 22.122 17 22.122C19.3951 22.122 20.71 23.8443 20.71 25.7818C20.71 26.5952 20.4869 27.2051 20.0407 27.9347C19.6416 28.6164 19.8763 29.0949 20.4517 29.0949H23.5864C25.9227 29.0949 27.1437 27.8869 27.1437 25.5307V21.1054C27.1437 20.5193 27.625 20.2682 28.2825 20.6867C29.0103 21.1412 29.6091 21.3685 30.3957 21.3685C32.3094 21.3685 34 20.029 34 17.5891C34 15.1372 32.3094 13.7976 30.3957 13.7976C29.6091 13.7976 29.0103 14.0249 28.2825 14.4794C27.625 14.898 27.1437 14.6468 27.1437 14.0608V9.63546C27.1437 7.29124 25.9227 6.07129 23.5864 6.07129H20.4517C19.8763 6.07129 19.6416 6.56166 20.0407 7.2434C20.4869 7.97297 20.71 8.58295 20.71 9.39625C20.71 11.3338 19.3951 13.0561 17 13.0561C14.6049 13.0561 13.2783 11.3338 13.2783 9.39625C13.2783 8.58295 13.5014 7.97297 13.9593 7.2434C14.3584 6.56166 14.1118 6.07129 13.5483 6.07129H10.4136C8.07735 6.07129 6.85635 7.29124 6.85635 9.63546V14.0608C6.85635 14.6468 6.375 14.898 5.7058 14.4794C4.98964 14.0249 4.39088 13.7976 3.59254 13.7976C1.69061 13.7976 0 15.1372 0 17.5891Z" fill="#FF9500"/>
</svg>
