<svg width="24" height="29" viewBox="0 0 24 29" fill="none" xmlns="http://www.w3.org/2000/svg">
<path d="M11.6401 28.2891C11.8677 28.2891 12.2235 28.2036 12.5793 28.0187C20.676 23.7782 23.2802 21.6579 23.2802 16.5494V5.82003C23.2802 4.35435 22.654 3.88477 21.4587 3.38671C19.7938 2.70368 14.4719 0.768416 12.8212 0.199219C12.437 0.0711498 12.0385 0 11.6401 0C11.2416 0 10.8432 0.08538 10.4732 0.199219C8.80832 0.739955 3.48632 2.71791 1.82143 3.38671C0.640346 3.87053 0 4.35435 0 5.82003V16.5494C0 21.6579 2.74637 23.5363 10.7009 28.0187C11.0709 28.218 11.4124 28.2891 11.6401 28.2891ZM5.22238 14.6141C5.22238 14.4433 5.30775 14.2299 5.46429 14.0449L13.5042 3.95591C14.1161 3.1875 15.1407 3.69978 14.7707 4.65318L12.1239 11.7682H17.0901C17.4743 11.7682 17.7589 12.0385 17.7589 12.4228C17.7589 12.5935 17.6736 12.807 17.517 12.9919L9.47712 23.0809C8.86523 23.8493 7.85491 23.337 8.21066 22.3979L10.8716 15.2687H5.89118C5.52121 15.2687 5.22238 14.9983 5.22238 14.6141Z" fill="#FF9500"/>
</svg>
