<svg width="79" height="34" viewBox="0 0 79 34" fill="none" xmlns="http://www.w3.org/2000/svg">
<g clip-path="url(#clip0_922_49737)">
<path d="M10.8115 26.9618C9.62868 27.1695 8.42506 27.2318 7.17997 27.3977L3.38227 16.2747V27.875C2.19945 27.9995 1.12038 28.1655 -0.000244141 28.3315V7.08154H3.15414L7.47045 19.1386V7.08154H10.8115V26.9618ZM17.3484 14.8635C18.6351 14.8635 20.6065 14.8013 21.7893 14.8013V18.1215C20.3159 18.1215 18.5936 18.1215 17.3484 18.1838V23.1228C19.2992 22.9983 21.2498 22.8322 23.2212 22.7699V25.9655L14.028 26.692V7.08154H23.2212V10.4019H17.3484V14.8635ZM35.5686 10.4019H32.1238V25.6753C31.0032 25.6753 29.8825 25.6754 28.8036 25.7167V10.4019H25.3588V7.08154H35.5687L35.5686 10.4019ZM40.964 14.6353H45.5088V17.9556H40.964V25.4886H37.7058V7.08154H46.9822V10.4019H40.964V14.6353ZM52.3776 22.5832C54.2661 22.6246 56.1752 22.7701 58.0222 22.8737V26.1526C55.0547 25.9657 52.0871 25.7792 49.0574 25.7167V7.08154H52.3776V22.5832ZM60.8237 26.3809C61.882 26.4432 63.0026 26.5055 64.0817 26.6298V7.08154H60.8237V26.3809ZM78.629 7.08154L74.4162 17.1878L78.629 28.3315C77.3837 28.1655 76.1386 27.9372 74.8934 27.7297L72.5071 21.5872L70.0793 27.2318C68.8755 27.0241 67.7134 26.9618 66.51 26.7958L70.7848 17.0632L66.9249 7.08154H70.4941L72.673 12.6638L74.9973 7.08154H78.629V7.08154Z" fill="#4C4C4D"/>
</g>
<defs>
<clipPath id="clip0_922_49737">
<rect width="78.625" height="34" fill="white"/>
</clipPath>
</defs>
</svg>
