<svg width="100" height="34" viewBox="0 0 100 34" fill="none" xmlns="http://www.w3.org/2000/svg">
<g clip-path="url(#clip0_922_49709)">
<path d="M14.9289 2.18066C6.71365 2.18066 0.0535889 8.84054 0.0535889 17.0558C0.0535889 25.2713 6.71365 31.9307 14.9289 31.9307C23.145 31.9307 29.8043 25.2713 29.8043 17.0558C29.8043 8.84108 23.145 2.18137 14.9287 2.18137L14.9289 2.18066ZM21.7506 23.6348C21.4841 24.0718 20.9122 24.2103 20.4752 23.9421C16.9826 21.8088 12.5859 21.3256 7.40801 22.5086C6.90905 22.6223 6.41168 22.3097 6.298 21.8106C6.18378 21.3114 6.49517 20.814 6.99537 20.7004C12.6618 19.4058 17.5223 19.9632 21.4433 22.3594C21.8802 22.6276 22.0188 23.1978 21.7506 23.6348ZM23.5713 19.5845C23.2356 20.1302 22.5215 20.3025 21.9762 19.9668C17.9777 17.5091 11.8827 16.7973 7.15329 18.2329C6.53993 18.4182 5.89211 18.0725 5.70596 17.4602C5.52122 16.8469 5.86707 16.2003 6.47936 16.0138C11.8816 14.3746 18.5976 15.1686 23.1894 17.9903C23.7347 18.326 23.907 19.0401 23.5713 19.5847V19.5845ZM23.7276 15.3668C18.9334 12.5193 11.0235 12.2574 6.44614 13.6467C5.71111 13.8696 4.9338 13.4547 4.71105 12.7196C4.4883 11.9842 4.90289 11.2075 5.63846 10.984C10.8929 9.38889 19.6279 9.69708 25.1476 12.9738C25.8101 13.3662 26.0268 14.2201 25.6343 14.8803C25.2435 15.5415 24.3873 15.7594 23.7283 15.3668H23.7276ZM40.5243 15.9125C37.9558 15.3001 37.4993 14.8702 37.4993 13.9669C37.4993 13.1136 38.3021 12.5393 39.4976 12.5393C40.6557 12.5393 41.8032 12.9754 43.0076 13.8732C43.0431 13.9003 43.0893 13.9112 43.1337 13.9041C43.1799 13.8973 43.2189 13.8726 43.2456 13.8355L44.4997 12.0677C44.5512 11.9949 44.537 11.8945 44.4677 11.8389C43.0342 10.6891 41.4213 10.1301 39.5349 10.1301C36.7621 10.1301 34.8242 11.7944 34.8242 14.1755C34.8242 16.7289 36.4956 17.633 39.3839 18.331C41.8405 18.8971 42.2562 19.3713 42.2562 20.219C42.2562 21.1586 41.4178 21.7431 40.0678 21.7431C38.5686 21.7431 37.3447 21.2368 35.977 20.0538C35.9432 20.0236 35.897 20.0112 35.8544 20.0129C35.8082 20.0165 35.7674 20.0378 35.7389 20.0716L34.3321 21.7448C34.2735 21.8159 34.2806 21.9189 34.3481 21.9793C35.9397 23.4003 37.8971 24.1499 40.0109 24.1499C42.9987 24.1499 44.9295 22.5175 44.9295 19.9898C44.9349 17.857 43.6577 16.6758 40.5296 15.9148L40.5243 15.9125ZM51.6901 13.3795C50.3952 13.3795 49.333 13.8897 48.4555 14.935V13.7584C48.4555 13.6655 48.3809 13.5898 48.2885 13.5898H45.9882C45.8958 13.5898 45.8212 13.6655 45.8212 13.7584V26.8322C45.8212 26.9245 45.8958 27.0009 45.9882 27.0009H48.2885C48.3809 27.0009 48.4555 26.9245 48.4555 26.8322V22.7058C49.333 23.6881 50.3952 24.1695 51.6901 24.1695C54.097 24.1695 56.5341 22.3168 56.5341 18.775C56.5377 15.2326 54.1006 13.3793 51.6919 13.3793L51.6901 13.3795ZM53.859 18.775C53.859 20.5778 52.7488 21.8372 51.1572 21.8372C49.5852 21.8372 48.3986 20.521 48.3986 18.775C48.3986 17.0289 49.5852 15.713 51.1572 15.713C52.7222 15.7129 53.859 17.0003 53.859 18.7749V18.775ZM62.7778 13.3795C59.6782 13.3795 57.25 15.7662 57.25 18.8136C57.25 21.8283 59.6622 24.189 62.7405 24.189C65.8508 24.189 68.2861 21.8106 68.2861 18.775C68.2861 15.7498 65.8668 13.3799 62.7778 13.3799V13.3795ZM62.7778 21.855C61.1294 21.855 59.886 20.5298 59.886 18.7741C59.886 17.0105 61.0868 15.7306 62.7405 15.7306C64.3996 15.7306 65.6501 17.0552 65.6501 18.8127C65.6501 20.576 64.4422 21.855 62.7778 21.855ZM74.9046 13.5898H72.3734V11.0025C72.3734 10.9098 72.2988 10.8341 72.2064 10.8341H69.9061C69.8137 10.8341 69.7374 10.9098 69.7374 11.0025V13.5898H68.6325C68.5401 13.5898 68.4655 13.6655 68.4655 13.7584V15.7349C68.4655 15.8276 68.5401 15.9035 68.6325 15.9035H69.7374V21.0183C69.7374 23.0842 70.7658 24.1322 72.7961 24.1322C73.6203 24.1322 74.3042 23.9616 74.949 23.5957C75.0023 23.5673 75.0343 23.5105 75.0343 23.4501V21.5672C75.0343 21.5104 75.0041 21.4553 74.9543 21.4251C74.9046 21.3931 74.8424 21.3913 74.7909 21.418C74.3486 21.64 73.9205 21.7431 73.4409 21.7431C72.7038 21.7431 72.3734 21.4073 72.3734 20.6577V15.9044H74.9046C74.997 15.9044 75.0716 15.8287 75.0716 15.7358V13.7595C75.0751 13.6666 75.0005 13.5909 74.9064 13.5909L74.9046 13.5898ZM83.7222 13.6V13.2822C83.7222 12.3473 84.081 11.9304 84.8839 11.9304C85.3635 11.9304 85.7489 12.0256 86.1806 12.1695C86.2339 12.1862 86.2889 12.1779 86.3316 12.1461C86.376 12.1143 86.4008 12.0633 86.4008 12.0093V10.0713C86.4008 9.99727 86.3546 9.93173 86.2818 9.90988C85.8271 9.77434 85.2445 9.63526 84.3705 9.63526C82.2478 9.63526 81.1234 10.8314 81.1234 13.0932V13.5799H80.0186C79.9262 13.5799 79.8498 13.6556 79.8498 13.7483V15.7349C79.8498 15.8276 79.9262 15.9035 80.0186 15.9035H81.1234V23.7911C81.1234 23.8853 81.1998 23.9599 81.2922 23.9599H83.5907C83.6849 23.9599 83.7595 23.8853 83.7595 23.7911V15.904H85.907L89.1967 23.7911C88.8237 24.6189 88.456 24.7841 87.9551 24.7841C87.5501 24.7841 87.122 24.6633 86.6868 24.4235C86.646 24.4022 86.5962 24.3986 86.5536 24.4111C86.5092 24.427 86.4719 24.459 86.4541 24.5016L85.6743 26.2122C85.637 26.2939 85.669 26.3881 85.7472 26.4307C86.5607 26.8712 87.2943 27.0595 88.202 27.0595C89.9001 27.0595 90.8398 26.2673 91.6658 24.1393L95.6554 13.8302C95.6767 13.7783 95.6696 13.7197 95.6376 13.6737C95.6074 13.628 95.5559 13.6005 95.5008 13.6005H93.1064C93.0335 13.6005 92.9696 13.6461 92.9465 13.7135L90.4934 20.7181L87.8077 13.7088C87.7828 13.6437 87.7206 13.6005 87.6513 13.6005H83.7222V13.6ZM78.61 13.5898H76.3097C76.2173 13.5898 76.1409 13.6655 76.1409 13.7584V23.7911C76.1409 23.8853 76.2173 23.9599 76.3097 23.9599H78.61C78.7023 23.9599 78.7787 23.8853 78.7787 23.7911V13.7591C78.7787 13.6662 78.7041 13.5905 78.61 13.5905V13.5898ZM77.4731 9.02137C76.5619 9.02137 75.823 9.75889 75.823 10.67C75.823 11.5816 76.5619 12.32 77.4731 12.32C78.3844 12.32 79.1216 11.5816 79.1216 10.67C79.1216 9.75907 78.3826 9.02137 77.4731 9.02137ZM97.6199 16.8158C96.7105 16.8158 96.0017 16.0848 96.0017 15.1972C96.0017 14.3096 96.7194 13.5703 97.6288 13.5703C98.5383 13.5703 99.247 14.3011 99.247 15.188C99.247 16.0756 98.5294 16.8158 97.6199 16.8158ZM97.6288 13.7312C96.7993 13.7312 96.1723 14.3902 96.1723 15.1972C96.1723 16.0038 96.7957 16.654 97.6199 16.654C98.4495 16.654 99.0765 15.9955 99.0765 15.188C99.0765 14.3814 98.453 13.7312 97.6288 13.7312ZM97.9876 15.3544L98.4459 15.9953H98.0587L97.6466 15.4073H97.2931V15.9953H96.9698V14.2964H97.7265C98.1226 14.2964 98.382 14.4984 98.382 14.8384C98.3838 15.1169 98.2221 15.2871 97.9894 15.3544H97.9876ZM97.7141 14.5879H97.2931V15.1253H97.7141C97.9237 15.1253 98.0498 15.0224 98.0498 14.8563C98.0498 14.6816 97.9237 14.5879 97.7141 14.5879Z" fill="#4C4C4D"/>
</g>
<defs>
<clipPath id="clip0_922_49709">
<rect width="99.1667" height="34" fill="white"/>
</clipPath>
</defs>
</svg>
