<svg width="70" height="34" viewBox="0 0 70 34" fill="none" xmlns="http://www.w3.org/2000/svg">
<g clip-path="url(#clip0_922_49713)">
<path fill-rule="evenodd" clip-rule="evenodd" d="M56.4592 14.5915C56.7242 15.0488 56.811 15.5691 56.8396 16.1541L56.8772 16.9337V22.3856L56.9157 23.1661C56.9926 24.4407 57.9326 25.3832 59.217 25.4633L59.9934 25.5018V16.9337L60.0319 16.1541C60.0638 15.5757 60.1497 15.0455 60.4188 14.585C60.6931 14.1125 61.0868 13.7206 61.5605 13.4484C62.0341 13.1763 62.571 13.0335 63.1173 13.0345C63.6636 13.0355 64.2 13.1802 64.6726 13.4541C65.1453 13.728 65.5376 14.1213 65.8102 14.5948C66.0752 15.0521 66.1579 15.5822 66.1898 16.1541L66.2282 16.9313V22.3856L66.2667 23.1661C66.3468 24.4473 67.2795 25.3897 68.568 25.4633L69.3444 25.5018V16.1541C69.3444 14.5012 68.6879 12.9159 67.5194 11.7469C66.3508 10.5778 64.7658 9.92075 63.1129 9.9201C62.2282 9.91916 61.3535 10.107 60.5472 10.4712C59.7409 10.8353 59.0216 11.3673 58.4374 12.0316C57.8529 11.3676 57.1335 10.8357 56.3273 10.4715C55.5211 10.1072 54.6465 9.91897 53.7619 9.91928C52.4676 9.91928 51.2666 10.312 50.2718 10.9902C49.6648 10.3128 48.3067 9.91928 47.5271 9.91928V25.5018L48.3067 25.4633C49.6108 25.3774 50.5533 24.4603 50.604 23.1661L50.6457 22.3856V16.9337L50.6841 16.1541C50.7169 15.5659 50.7987 15.0488 51.0646 14.5882C51.3391 14.1161 51.7326 13.7242 52.2059 13.4517C52.6792 13.1793 53.2157 13.0357 53.7619 13.0355C54.3084 13.0356 54.8453 13.1794 55.3188 13.4525C55.7922 13.7256 56.1855 14.1184 56.4592 14.5915ZM3.11605 25.4642L3.89571 25.5018H15.5824L15.5439 24.7246C15.4384 23.4434 14.5311 22.5075 13.2459 22.4241L12.4662 22.3856H5.45502L14.8027 13.0346L14.7643 12.2583C14.7037 10.964 13.758 10.0289 12.4662 9.95773L11.6866 9.92255L-0.00012207 9.91928L0.038329 10.6989C0.140593 11.9678 1.06096 12.9234 2.33558 12.997L3.11605 13.0355H10.1272L0.779535 22.3864L0.817986 23.1661C0.894889 24.4505 1.82181 25.3807 3.11605 25.4633V25.4642ZM44.4682 12.2002C45.1918 12.9236 45.7658 13.7826 46.1574 14.7279C46.5491 15.6732 46.7506 16.6865 46.7506 17.7097C46.7506 18.733 46.5491 19.7462 46.1574 20.6915C45.7658 21.6369 45.1918 22.4958 44.4682 23.2193C43.0062 24.68 41.0241 25.5006 38.9574 25.5006C36.8907 25.5006 34.9086 24.68 33.4466 23.2193C30.4041 20.1767 30.4041 15.2427 33.4466 12.2002C34.1696 11.4769 35.0279 10.9032 35.9726 10.5117C36.9173 10.1202 37.9299 9.91862 38.9525 9.91846C39.9767 9.91775 40.9911 10.119 41.9375 10.5106C42.884 10.9023 43.7439 11.4767 44.4682 12.201V12.2002ZM42.2634 14.4066C43.1397 15.2836 43.632 16.4727 43.632 17.7126C43.632 18.9524 43.1397 20.1415 42.2634 21.0186C41.3863 21.8949 40.1972 22.3872 38.9574 22.3872C37.7175 22.3872 36.5284 21.8949 35.6514 21.0186C34.775 20.1415 34.2828 18.9524 34.2828 17.7126C34.2828 16.4727 34.775 15.2836 35.6514 14.4066C36.5284 13.5302 37.7175 13.038 38.9574 13.038C40.1972 13.038 41.3863 13.5302 42.2634 14.4066ZM22.6001 9.91846C23.6228 9.91873 24.6354 10.1204 25.5801 10.5121C26.5248 10.9037 27.3831 11.4776 28.106 12.201C31.1494 15.2427 31.1494 20.1775 28.106 23.2193C26.644 24.68 24.6619 25.5006 22.5952 25.5006C20.5285 25.5006 18.5464 24.68 17.0844 23.2193C14.0419 20.1767 14.0419 15.2427 17.0844 12.2002C17.8074 11.4769 18.6657 10.9032 19.6104 10.5117C20.5551 10.1202 21.5677 9.91862 22.5903 9.91846H22.6001ZM25.9012 14.405C26.7778 15.282 27.2702 16.4713 27.2702 17.7114C27.2702 18.9514 26.7778 20.1407 25.9012 21.0177C25.0242 21.8941 23.8351 22.3864 22.5952 22.3864C21.3554 22.3864 20.1663 21.8941 19.2892 21.0177C18.4129 20.1407 17.9206 18.9516 17.9206 17.7118C17.9206 16.4719 18.4129 15.2828 19.2892 14.4058C20.1663 13.5294 21.3554 13.0371 22.5952 13.0371C23.8351 13.0371 25.0242 13.5294 25.9012 14.4058V14.405Z" fill="#4C4C4D"/>
</g>
<defs>
<clipPath id="clip0_922_49713">
<rect width="69.4166" height="34" fill="white"/>
</clipPath>
</defs>
</svg>
