<svg width="17" height="15" viewBox="0 0 17 15" fill="none" xmlns="http://www.w3.org/2000/svg">
<path fill-rule="evenodd" clip-rule="evenodd" d="M-3.14722e-07 7.20002C-3.36449e-07 6.70297 0.402943 6.30002 0.9 6.30002L13.6655 6.30002L8.6762 1.54877C8.31791 1.20426 8.30674 0.634519 8.65125 0.276225C8.99576 -0.0820698 9.5655 -0.0932412 9.9238 0.251273L16.5238 6.55127C16.7003 6.72096 16.8 6.95521 16.8 7.20002C16.8 7.44484 16.7003 7.67909 16.5238 7.84877L9.9238 14.1488C9.5655 14.4933 8.99576 14.4821 8.65125 14.1238C8.30674 13.7655 8.31791 13.1958 8.6762 12.8513L13.6655 8.10002L0.9 8.10002C0.402943 8.10002 -2.92995e-07 7.69708 -3.14722e-07 7.20002Z" fill="white"/>
</svg>
