<svg width="24" height="24" viewBox="0 0 24 24" fill="none" xmlns="http://www.w3.org/2000/svg">
<path fill-rule="evenodd" clip-rule="evenodd" d="M3.60156 11.9999C3.60156 11.5029 4.00451 11.0999 4.50156 11.0999L17.2671 11.0999L12.2778 6.3487C11.9195 6.00418 11.9083 5.43445 12.2528 5.07615C12.5973 4.71786 13.1671 4.70669 13.5254 5.0512L20.1254 11.3512C20.3018 11.5209 20.4016 11.7551 20.4016 11.9999C20.4016 12.2448 20.3018 12.479 20.1254 12.6487L13.5254 18.9487C13.1671 19.2932 12.5973 19.282 12.2528 18.9237C11.9083 18.5655 11.9195 17.9957 12.2778 17.6512L17.2671 12.8999L4.50156 12.8999C4.00451 12.8999 3.60156 12.497 3.60156 11.9999Z" fill="white"/>
</svg>
